<?xml version="1.0" standalone="no"?>
<!DOCTYPE svg PUBLIC "-//W3C//DTD SVG 20010904//EN"
 "http://www.w3.org/TR/2001/REC-SVG-20010904/DTD/svg10.dtd">
<svg version="1.0" xmlns="http://www.w3.org/2000/svg"
 width="101.000000pt" height="101.000000pt" viewBox="0 0 101.000000 101.000000"
 preserveAspectRatio="xMidYMid meet">
<metadata>
Created by potrace 1.11, written by Peter Selinger 2001-2013
</metadata>
<g transform="translate(0.000000,101.000000) scale(0.100000,-0.100000)"
fill="#000000" stroke="none">
<path d="M341 822 c-136 -27 -264 -111 -303 -199 -31 -70 -23 -203 17 -280 17
-32 73 -93 86 -93 6 0 7 -5 3 -12 -4 -6 -3 -8 3 -5 6 4 28 -1 49 -10 47 -20
63 -25 89 -24 10 0 24 -4 30 -8 5 -5 18 -7 27 -6 10 2 20 0 23 -5 3 -4 14 -6
25 -3 12 3 20 0 20 -6 0 -7 -4 -10 -9 -7 -4 3 -8 -4 -7 -16 1 -14 8 -22 23
-23 12 -1 20 2 17 7 -4 5 -13 7 -21 4 -9 -4 -13 -1 -10 6 2 7 14 12 26 11 11
-2 21 2 21 8 0 5 -4 8 -9 4 -5 -3 -12 -2 -14 2 -3 5 7 9 21 10 15 0 33 2 41 4
7 2 16 -3 18 -11 4 -12 3 -12 -5 -1 -8 11 -14 9 -31 -8 -23 -23 -30 -50 -7
-29 8 7 12 16 9 21 -2 4 3 7 12 7 10 0 13 -5 9 -12 -5 -9 -2 -9 9 1 13 10 20
11 30 2 10 -8 19 -7 33 3 10 8 15 18 11 22 -11 11 -38 14 -32 4 3 -5 1 -11 -4
-14 -5 -4 -12 -2 -15 3 -7 10 10 24 33 28 8 1 18 8 23 15 7 9 8 7 4 -7 -3 -11
-1 -27 5 -35 9 -13 10 -12 5 3 -7 22 -1 22 42 -5 20 -12 33 -17 29 -11 -4 6 0
16 7 23 8 6 13 20 11 30 -3 14 1 18 16 15 10 -2 22 1 25 7 4 6 3 8 -2 5 -6 -3
-16 -2 -23 3 -8 4 3 7 27 6 23 -1 45 -6 49 -10 4 -5 -2 -7 -14 -4 -14 4 -24 0
-27 -9 -4 -9 -13 -13 -22 -9 -10 4 -13 2 -8 -6 4 -6 3 -9 -2 -6 -5 4 -10 -6
-11 -20 -1 -24 0 -24 9 -7 16 30 17 30 34 9 14 -18 15 -18 4 4 -9 18 -8 23 5
27 53 17 52 15 26 36 -13 10 -18 19 -12 19 6 0 10 3 9 8 -2 4 0 8 5 10 16 5
19 1 9 -11 -8 -9 -4 -16 17 -28 21 -13 28 -13 28 -3 0 7 -4 11 -9 8 -4 -3 -8
0 -8 6 0 6 -4 8 -10 5 -6 -3 -10 -2 -10 3 0 8 28 25 60 35 10 4 8 6 -5 6 -12
1 -26 -4 -33 -11 -6 -6 -15 -8 -19 -3 -5 4 -2 10 5 12 6 3 10 9 7 13 -3 5 0
12 6 16 8 5 9 3 5 -5 -12 -19 25 -9 49 12 11 11 39 32 62 48 28 20 45 41 51
63 25 88 -23 210 -102 264 -27 18 -51 30 -54 27 -3 -2 -18 7 -34 20 -67 57
-299 86 -447 57z m307 -594 c6 9 12 6 20 -12 9 -20 8 -27 -4 -37 -13 -10 -20
-7 -42 16 -15 16 -18 22 -8 14 18 -13 18 -12 12 11 -6 19 -5 22 3 10 9 -12 13
-12 19 -2z m-78 -57 c0 -5 -7 -12 -16 -15 -14 -5 -15 -4 -4 9 14 17 20 19 20
6z"/>
<path d="M643 205 c-10 -10 -9 -14 2 -19 17 -6 26 5 17 21 -5 8 -11 7 -19 -2z"/>
<path d="M880 330 c-9 -6 -10 -10 -3 -10 6 0 15 5 18 10 8 12 4 12 -15 0z"/>
<path d="M830 280 c-9 -6 -10 -10 -3 -10 6 0 15 5 18 10 8 12 4 12 -15 0z"/>
<path d="M790 208 c0 -4 4 -8 9 -8 6 0 12 4 15 8 3 5 -1 9 -9 9 -8 0 -15 -4
-15 -9z"/>
<path d="M297 170 c3 -11 7 -20 9 -20 2 0 4 9 4 20 0 11 -4 20 -9 20 -5 0 -7
-9 -4 -20z"/>
<path d="M266 172 c-3 -5 1 -9 9 -9 8 0 12 4 9 9 -3 4 -7 8 -9 8 -2 0 -6 -4
-9 -8z"/>
<path d="M326 163 c-6 -14 -5 -15 5 -6 7 7 10 15 7 18 -3 3 -9 -2 -12 -12z"/>
<path d="M353 157 c0 -12 1 -16 4 -8 5 11 7 11 14 0 5 -8 9 -9 9 -3 0 6 -6 16
-13 22 -10 8 -13 6 -14 -11z"/>
<path d="M610 161 c0 -5 7 -12 16 -15 14 -5 15 -4 4 9 -14 17 -20 19 -20 6z"/>
<path d="M564 135 c-18 -15 -18 -15 0 -8 15 5 17 3 11 -8 -5 -8 -4 -11 0 -6 8
7 17 37 11 37 -1 0 -11 -7 -22 -15z"/>
<path d="M316 132 c-3 -5 1 -9 9 -9 8 0 12 4 9 9 -3 4 -7 8 -9 8 -2 0 -6 -4
-9 -8z"/>
<path d="M513 125 c0 -8 4 -12 9 -9 4 3 8 9 8 15 0 5 -4 9 -8 9 -5 0 -9 -7 -9
-15z"/>
</g>
</svg>
